<?xml version="1.0" encoding="iso-8859-1"?>
<!-- Uploaded to: SVG Repo, www.svgrepo.com, Generator: SVG Repo Mixer Tools -->
<svg version="1.1" id="Layer_1" xmlns="http://www.w3.org/2000/svg" xmlns:xlink="http://www.w3.org/1999/xlink" 
	 viewBox="0 0 512 512" xml:space="preserve">
<path style="fill:#E4EAF6;" d="M387.184,237.352v239.201H258.547V237.352L387.184,237.352L387.184,237.352z"/>
<rect x="97.649" y="300.424" style="fill:#B4E1FA;" width="92.975" height="53.964"/>
<rect x="97.649" y="238.806" style="fill:#82B1E1;" width="92.975" height="53.977"/>
<rect id="SVGCleanerId_0" x="35.662" y="402.149" style="fill:#C7CFE2;" width="216.517" height="74.406"/>
<rect x="29.294" y="395.781" style="fill:#C7CFE2;" width="229.254" height="87.142"/>
<g>
	<rect id="SVGCleanerId_0_1_" x="35.662" y="402.149" style="fill:#C7CFE2;" width="216.517" height="74.406"/>
</g>
<rect x="392.279" y="402.149" style="fill:#C7CFE2;" width="84.06" height="74.406"/>
<path style="fill:#FF6464;" d="M256,76.835L35.662,187.096v207.41h216.517V234.983c0-2.107,1.714-3.821,3.821-3.821h132.458
	c2.107,0,3.821,1.714,3.821,3.821v159.522h84.06v-207.41L256,76.835z M205.475,354.386c2.107,0,3.821,1.714,3.821,3.821
	s-1.714,3.821-3.821,3.821H82.786c-2.107,0-3.821-1.714-3.821-3.821s1.714-3.821,3.821-3.821h7.221V234.983
	c0-2.107,1.714-3.821,3.821-3.821h100.617c2.107,0,3.821,1.714,3.821,3.821v119.403H205.475z"/>
<polygon style="fill:#5B5D6E;" points="382.408,44.681 382.408,89.767 445.351,121.27 445.351,44.681 "/>
<path style="fill:#707487;" d="M256,35.901L15.284,156.363v32.391L254.298,69.141c0.523-0.264,1.112-0.401,1.702-0.401
	s1.178,0.139,1.709,0.405l239.007,119.609v-32.391L256,35.901z"/>
<path d="M510.726,154.006v40.922c0,3.541-1.834,6.814-4.84,8.673c-1.63,1.006-3.49,1.516-5.349,1.516c-1.554,0-3.12-0.357-4.56-1.07
	l-5.629-2.815v268.953h11.463c5.629,0,10.189,4.56,10.189,10.189c0,5.629-4.56,10.189-10.189,10.189H10.189
	C4.56,490.563,0,486.004,0,480.374c0-5.629,4.56-10.189,10.189-10.189h11.463V201.232l-5.629,2.815
	c-3.159,1.579-6.916,1.414-9.909-0.446c-3.006-1.86-4.84-5.133-4.84-8.673v-40.922c0-3.859,2.178-7.387,5.629-9.106L251.44,22.516
	c2.866-1.439,6.254-1.439,9.119,0L368.398,76.48V41.71c0-5.617,4.56-10.189,10.189-10.189h70.585
	c5.617,0,10.189,4.572,10.189,10.189V122l45.736,22.9C508.548,146.619,510.726,150.147,510.726,154.006z M490.348,178.447v-18.149
	L256,43.022L21.652,160.298v18.149L251.44,63.451c2.866-1.439,6.254-1.439,9.119,0L490.348,178.447z M469.97,470.185v-61.669
	h-71.323v61.669H469.97z M469.97,388.138V191.03L256,83.956L42.03,191.03v197.107h203.781V234.983
	c0-5.617,4.56-10.189,10.189-10.189h132.458c5.629,0,10.189,4.572,10.189,10.189v153.154H469.97z M438.983,111.811V51.899h-50.207
	v34.783L438.983,111.811z M378.269,470.185V245.173h-112.08v225.013H378.269z M245.811,470.185v-61.669H42.03v61.669H245.811z"/>
<path d="M294.617,351.011c1.898,1.898,2.993,4.521,2.993,7.196c0,2.687-1.095,5.311-2.993,7.209c-1.898,1.898-4.521,2.98-7.196,2.98
	c-2.687,0-5.311-1.083-7.209-2.98c-1.898-1.898-2.98-4.521-2.98-7.209c0-2.675,1.083-5.298,2.98-7.196s4.521-2.993,7.209-2.993
	C290.095,348.018,292.719,349.114,294.617,351.011z"/>
<path d="M205.475,348.018c5.629,0,10.189,4.572,10.189,10.189c0,5.629-4.56,10.189-10.189,10.189h-11.03H93.828H82.786
	c-5.629,0-10.189-4.56-10.189-10.189c0-5.617,4.56-10.189,10.189-10.189h0.853V234.983c0-5.617,4.56-10.189,10.189-10.189h100.617
	c5.617,0,10.189,4.572,10.189,10.189v113.035H205.475z M184.256,348.018v-41.227h-80.239v41.227H184.256z M184.256,286.413v-41.24
	h-80.239v41.24H184.256z"/>
</svg>